<?xml version="1.0" encoding="utf-8"?>
<!-- Generator: Adobe Illustrator 15.1.0, SVG Export Plug-In . SVG Version: 6.00 Build 0)  -->
<!DOCTYPE svg PUBLIC "-//W3C//DTD SVG 1.1//EN" "http://www.w3.org/Graphics/SVG/1.1/DTD/svg11.dtd">
<svg version="1.1" id="Livello_1" xmlns="http://www.w3.org/2000/svg" xmlns:xlink="http://www.w3.org/1999/xlink" x="0px" y="0px"
	 width="684px" height="432.59px" viewBox="0 0 684 432.59" enable-background="new 0 0 684 432.59" xml:space="preserve">
<path fill="#FFFFFF" d="M88.67,288l24.8-22.1V95.26l-24.8-22.11h176.61v65.59L220,87.93h-67.98v79.79h38.55l26.89-37.65v91.83
	l-26.89-35.8h-38.55v87.11H220l45.27-50.71V288H88.67z"/>
<path fill="#FFFFFF" d="M418.84,294.12l24.8-21.96V101.38l-24.8-22.11h176.61v65.59l-45.27-50.8h-67.98v79.79h38.55l26.89-37.65
	v91.89l-26.89-35.86h-38.55v79.94l24.8,21.96H418.84z"/>
<rect x="36.03" fill="#FFFFFF" width="287.97" height="36"/>
<rect x="360.03" fill="#FFFFFF" width="287.97" height="36"/>
<rect x="36" y="324" fill="#FFFFFF" width="288" height="36"/>
<rect x="360" y="324" fill="#FFFFFF" width="288" height="36"/>
<rect y="36" fill="#FFFFFF" width="36" height="288"/>
<rect x="324" y="36" fill="#FFFFFF" width="36" height="288"/>
<rect x="648" y="36" fill="#FFFFFF" width="36" height="288"/>
<path fill="#FFFFFF" d="M38.12,432l3.89-3.47v-26.77l-3.89-3.47h27.7v10.29l-7.1-7.97H48.06v12.52h6.05l4.22-5.91v14.4l-4.22-5.62
	h-6.05v13.66h10.66l7.1-7.96V432H38.12z"/>
<path fill="#FFFFFF" d="M69.69,432l3.89-3.47v-26.77l-3.89-3.47h13.83l-3.89,3.47v27.92h10.08l7.1-7.96V432H69.69z"/>
<path fill="#FFFFFF" d="M99.78,432l3.89-3.47v-26.77l-3.89-3.47h27.7v10.29l-7.1-7.97h-10.66v12.52h6.05l4.22-5.91v14.4l-4.22-5.62
	h-6.05v13.66h10.66l7.1-7.96V432H99.78z"/>
<path fill="#FFFFFF" d="M131.87,415.88c0-5.13,1.68-9.43,5.04-12.92s7.65-5.23,12.87-5.23c2.56,0,4.84,0.42,6.84,1.27
	s3.52,1.96,4.55,3.34l-4.29,8.92l-3.73-9.2c-0.42-0.48-1.04-0.89-1.84-1.23s-1.64-0.5-2.5-0.5c-3.08,0-5.66,1.11-7.76,3.34
	s-3.14,5.33-3.14,9.33c0,4.12,1.14,7.46,3.41,10c2.27,2.54,5.27,3.82,8.99,3.82c5.19,0,8.93-2.41,11.23-7.24
	c0,3.33-1.21,6.33-3.62,9s-5.62,4.01-9.62,4.01c-4.83,0-8.77-1.56-11.84-4.68S131.87,420.77,131.87,415.88z"/>
<path fill="#FFFFFF" d="M163.79,408.59l0.87-10.29h27.94l0.84,10.29l-7.1-7.97h-4.69v27.94l3.89,3.45h-13.83l3.89-3.45v-27.94h-4.71
	L163.79,408.59z"/>
<path fill="#FFFFFF" d="M195.89,432l3.89-3.45v-26.79l-3.89-3.47h14.48c4.73,0,8.25,0.77,10.56,2.31c2.31,1.54,3.46,3.56,3.46,6.06
	c0,2.75-0.96,5-2.88,6.76c-1.92,1.76-4.25,2.88-6.99,3.36l3.97,6.28c1.92,3.05,3.52,5.18,4.79,6.41s2.73,2.07,4.37,2.52
	c-1.12,0.39-2.24,0.59-3.35,0.59c-3.96,0-7.58-2.29-10.84-6.87l-6.2-8.7h-1.43v11.53l3.89,3.45H195.89z M205.83,415.01h3.45
	c2.75,0,4.95-0.63,6.6-1.9s2.47-2.94,2.47-5.02c0-2.11-0.9-3.93-2.71-5.47s-4.4-2.31-7.79-2.31h-2.02V415.01z"/>
<path fill="#FFFFFF" d="M230.1,432l3.89-3.45v-26.79l-3.89-3.47h13.83l-3.89,3.47v26.79l3.89,3.45H230.1z"/>
<path fill="#FFFFFF" d="M246.54,415.88c0-5.13,1.68-9.43,5.04-12.92s7.65-5.23,12.87-5.23c2.56,0,4.84,0.42,6.84,1.27
	s3.52,1.96,4.55,3.34l-4.29,8.92l-3.73-9.2c-0.42-0.48-1.04-0.89-1.84-1.23s-1.64-0.5-2.5-0.5c-3.08,0-5.66,1.11-7.76,3.34
	s-3.14,5.33-3.14,9.33c0,4.12,1.14,7.46,3.41,10c2.27,2.54,5.27,3.82,8.99,3.82c5.19,0,8.93-2.41,11.23-7.24
	c0,3.33-1.21,6.33-3.62,9s-5.62,4.01-9.62,4.01c-4.83,0-8.77-1.56-11.84-4.68S246.54,420.77,246.54,415.88z"/>
<path fill="#FFFFFF" d="M278.64,432l3.89-3.45v-26.79l-3.89-3.47h13.83l-3.89,3.47v26.79l3.89,3.45H278.64z"/>
<path fill="#FFFFFF" d="M294.9,408.59l0.87-10.29h27.94l0.84,10.29l-7.1-7.97h-4.69v27.94l3.89,3.45h-13.83l3.89-3.45v-27.94H302
	L294.9,408.59z"/>
<path fill="#FFFFFF" d="M327,432l3.89-3.47v-26.77L327,398.3h27.7v10.29l-7.1-7.97h-10.66v12.52h6.05l4.22-5.91v14.4l-4.22-5.62
	h-6.05v13.66h10.66l7.1-7.96V432H327z"/>
<path fill="#FFFFFF" d="M358.58,432l3.89-3.45v-26.79l-3.89-3.47h13.83l-3.89,3.47v26.79l3.89,3.45H358.58z"/>
<path fill="#FFFFFF" d="M374.83,408.59l0.87-10.29h27.94l0.84,10.29l-7.1-7.97h-4.69v27.94l3.89,3.45h-13.83l3.89-3.45v-27.94h-4.71
	L374.83,408.59z"/>
<path fill="#FFFFFF" d="M406.68,427.43l4.22-7.8c1.45,3.61,2.99,6.24,4.62,7.89s3.53,2.47,5.69,2.47c1.83,0,3.29-0.43,4.39-1.3
	c1.1-0.87,1.65-1.96,1.65-3.27c0-0.73-0.18-1.43-0.55-2.09c-0.37-0.66-0.77-1.2-1.22-1.63s-1.15-0.91-2.11-1.44
	c-0.96-0.53-1.74-0.92-2.33-1.17s-1.51-0.63-2.76-1.15c-1.53-0.64-2.79-1.2-3.78-1.68s-2.05-1.12-3.18-1.94
	c-1.13-0.82-1.98-1.76-2.54-2.81c-0.56-1.05-0.84-2.25-0.84-3.6c0-2.84,1.22-5.25,3.66-7.22c2.44-1.97,5.51-2.95,9.19-2.95
	c4.38,0,8.04,1.25,10.96,3.75l-2.85,7.67c-1.79-3.54-3.37-5.94-4.74-7.2c-1.36-1.26-2.92-1.89-4.66-1.89c-1.79,0-3.26,0.49-4.4,1.46
	c-1.14,0.97-1.71,2.16-1.71,3.57c0,0.8,0.2,1.52,0.61,2.18c0.41,0.65,1.04,1.26,1.92,1.82c0.87,0.56,1.68,1.01,2.41,1.35
	c0.73,0.34,1.78,0.78,3.14,1.32c1.15,0.45,2.04,0.81,2.66,1.08s1.46,0.65,2.53,1.15c1.07,0.5,1.89,0.99,2.46,1.46
	s1.18,1.05,1.82,1.72s1.09,1.43,1.36,2.26c0.27,0.84,0.41,1.73,0.41,2.68c0,1.86-0.36,3.49-1.08,4.9c-0.72,1.41-1.69,2.5-2.9,3.28
	s-2.53,1.36-3.95,1.73s-2.92,0.56-4.49,0.56C414.72,432.57,410.19,430.85,406.68,427.43z"/>
<path fill="#FFFFFF" d="M435.16,432l3.89-3.45v-26.79l-3.89-3.47h27.7v10.29l-7.1-7.97H445.1v12.52h6.05l4.22-5.91v14.41l-4.22-5.62
	h-6.05v12.54l3.89,3.45H435.16z"/>
<path fill="#FFFFFF" d="M459.58,432l3.94-3.52l13.78-31.05L491,428.48l3.98,3.52h-14.16l3.7-3.26l-2.51-5.95h-12.84l-2.65,5.81
	l3.89,3.4H459.58z M470.47,419.91h10.31l-4.99-11.81L470.47,419.91z"/>
<path fill="#FFFFFF" d="M498.01,432l3.89-3.45v-26.79l-3.89-3.47h13.89c5.24,0,8.93,0.64,11.07,1.92s3.21,3.2,3.21,5.77
	c0,1.92-0.66,3.57-1.97,4.95c-1.31,1.38-3.18,2.35-5.6,2.93c2.6,0.09,4.71,0.87,6.31,2.32s2.41,3.29,2.41,5.51
	c0,3.17-1.29,5.68-3.86,7.54c-2.57,1.85-6.18,2.78-10.83,2.78H498.01z M507.95,412.99h2.88c6.2,0,9.3-2.11,9.3-6.33
	c0-2.23-0.75-3.85-2.25-4.85s-4.14-1.5-7.92-1.5h-2.02V412.99z M507.95,429.98h1.73c4.31,0,7.32-0.66,9.04-1.97s2.57-3.16,2.57-5.53
	c0-2.17-0.91-3.96-2.73-5.37s-4.39-2.11-7.72-2.11h-2.88V429.98z"/>
<path fill="#FFFFFF" d="M530.7,432l3.89-3.45v-26.79l-3.89-3.47h14.48c4.73,0,8.25,0.77,10.56,2.31c2.3,1.54,3.46,3.56,3.46,6.06
	c0,2.75-0.96,5-2.88,6.76s-4.25,2.88-6.99,3.36l3.97,6.28c1.92,3.05,3.52,5.18,4.79,6.41c1.27,1.23,2.73,2.07,4.37,2.52
	c-1.12,0.39-2.24,0.59-3.35,0.59c-3.96,0-7.58-2.29-10.84-6.87l-6.2-8.7h-1.43v11.53l3.89,3.45H530.7z M540.63,415.01h3.45
	c2.75,0,4.95-0.63,6.6-1.9s2.47-2.94,2.47-5.02c0-2.11-0.9-3.93-2.71-5.47s-4.4-2.31-7.79-2.31h-2.02V415.01z"/>
<path fill="#FFFFFF" d="M564.91,432l3.89-3.45v-26.79l-3.89-3.47h13.83l-3.89,3.47v26.79l3.89,3.45H564.91z"/>
<path fill="#FFFFFF" d="M582.12,432l3.89-3.47v-26.77l-3.89-3.47h27.7v10.29l-7.1-7.97h-10.66v12.52h6.05l4.22-5.91v14.4l-4.22-5.62
	h-6.05v13.66h10.66l7.1-7.96V432H582.12z"/>
<path fill="#FFFFFF" d="M613.7,432l3.89-3.45v-26.79l-3.89-3.47h13.83l-3.89,3.47v12.61l10.45-9.77v-6.3h11.44l-8.51,6.91l-7.57,7.1
	l13.34,16.43l3.66,3.26h-15.56l3.89-3.45l-11.13-13.88v13.88l3.89,3.45H613.7z"/>
</svg>
